<svg xmlns="http://www.w3.org/2000/svg" viewBox="0 0 1200 1500" preserveAspectRatio="xMidYMid slice">
  <defs>
    <radialGradient id="g1" cx="30%" cy="20%" r="80%">
      <stop offset="0%" stop-color="#1e3a5f" />
      <stop offset="45%" stop-color="#0b1a2e" />
      <stop offset="100%" stop-color="#020409" />
    </radialGradient>
    <radialGradient id="g2" cx="80%" cy="90%" r="60%">
      <stop offset="0%" stop-color="#3b1d4f" stop-opacity="0.65" />
      <stop offset="100%" stop-color="#3b1d4f" stop-opacity="0" />
    </radialGradient>
    <linearGradient id="ocean" x1="0" y1="0" x2="0" y2="1">
      <stop offset="0%" stop-color="#0a2440" stop-opacity="0" />
      <stop offset="100%" stop-color="#020409" stop-opacity="0.95" />
    </linearGradient>
    <filter id="noise">
      <feTurbulence type="fractalNoise" baseFrequency="0.9" numOctaves="2" stitchTiles="stitch" />
      <feColorMatrix values="0 0 0 0 1  0 0 0 0 1  0 0 0 0 1  0 0 0 0.06 0" />
    </filter>
  </defs>
  <rect width="1200" height="1500" fill="url(#g1)" />
  <rect width="1200" height="1500" fill="url(#g2)" />
  <g opacity="0.85">
    <circle cx="900" cy="320" r="180" fill="#f3f0e7" opacity="0.9" />
    <circle cx="900" cy="320" r="180" fill="#0b1a2e" opacity="0.18" />
  </g>
  <g opacity="0.55">
    <path d="M0 1050 Q 300 980 600 1040 T 1200 1020 L 1200 1500 L 0 1500 Z" fill="#0a1e36" />
    <path d="M0 1140 Q 300 1080 600 1130 T 1200 1110 L 1200 1500 L 0 1500 Z" fill="#071528" />
    <path d="M0 1240 Q 300 1190 600 1230 T 1200 1210 L 1200 1500 L 0 1500 Z" fill="#040d1a" />
  </g>
  <rect width="1200" height="1500" fill="url(#ocean)" />
  <rect width="1200" height="1500" filter="url(#noise)" />
  <g fill="#f3f0e7" font-family="Georgia, 'Times New Roman', serif" text-anchor="middle">
    <text x="600" y="780" font-size="120" letter-spacing="18" font-weight="300">ATLÁNTICO</text>
    <text x="600" y="840" font-size="28" letter-spacing="14" opacity="0.7">SOMBRAS · 2026</text>
  </g>
</svg>
